<svg width="20" height="20" viewBox="0 0 20 20" fill="none" xmlns="http://www.w3.org/2000/svg">
<path d="M8.33325 9.44434H9.99992V10.5554H8.33325V9.44434Z" fill="white"/>
<path d="M14.6944 7.87247C13.7091 6.26013 12.365 4.89698 10.7666 3.88913C10.0283 3.42115 9.18653 3.14104 8.31497 3.07326C7.44341 3.00547 6.5685 3.15206 5.76664 3.50024C5.06525 3.83108 4.45494 4.32767 3.9884 4.94714C3.52187 5.5666 3.21313 6.29032 3.08886 7.0558C3.04442 7.31691 3.01108 7.56691 2.97775 7.81135C2.45761 7.89566 1.98435 8.16206 1.64243 8.56299C1.30052 8.96393 1.1122 9.47331 1.11108 10.0002V13.4058C1.11108 13.7005 1.22815 13.9831 1.43652 14.1915C1.64489 14.3998 1.92751 14.5169 2.2222 14.5169V10.0002C2.2222 9.70556 2.33926 9.42294 2.54763 9.21457C2.75601 9.0062 3.03862 8.88913 3.33331 8.88913H13.7389C14.8096 8.8906 15.836 9.3166 16.5932 10.0737C17.3503 10.8308 17.7763 11.8573 17.7778 12.928V13.3336H16.6666C16.432 12.7614 15.9949 12.2957 15.4388 12.0252C14.8827 11.7548 14.2464 11.6985 13.6515 11.8673C13.0566 12.036 12.5446 12.4179 12.2132 12.94C11.8819 13.4622 11.7544 14.088 11.8551 14.6982C11.9557 15.3083 12.2775 15.86 12.7591 16.2481C13.2406 16.6361 13.8481 16.8332 14.4657 16.8019C15.0833 16.7705 15.6678 16.5129 16.1075 16.0781C16.5473 15.6434 16.8116 15.0619 16.85 14.4447H17.7778C18.0724 14.4447 18.3551 14.3276 18.5634 14.1193C18.7718 13.9109 18.8889 13.6283 18.8889 13.3336V12.928C18.8866 11.7291 18.4666 10.5684 17.7011 9.64572C16.9355 8.72302 15.8723 8.09597 14.6944 7.87247ZM6.11108 7.77802H3.84997C3.84997 7.6058 3.89997 7.42802 3.93331 7.22247C4.02929 6.61216 4.27978 6.03656 4.66095 5.55036C5.04213 5.06417 5.54133 4.68355 6.11108 4.44469V7.77802ZM7.22219 7.77802V4.21135C8.25939 4.07667 9.31128 4.30431 10.2 4.8558C11.4132 5.61145 12.4602 6.60562 13.2778 7.77802H7.22219ZM14.3333 15.7669C14.0586 15.7669 13.7901 15.6855 13.5617 15.5328C13.3333 15.3802 13.1553 15.1633 13.0501 14.9095C12.945 14.6557 12.9175 14.3765 12.9711 14.1071C13.0247 13.8376 13.157 13.5902 13.3512 13.3959C13.5455 13.2017 13.7929 13.0694 14.0623 13.0158C14.3318 12.9622 14.611 12.9897 14.8648 13.0949C15.1186 13.2 15.3355 13.378 15.4881 13.6064C15.6407 13.8348 15.7222 14.1033 15.7222 14.378C15.7222 14.7464 15.5759 15.0996 15.3154 15.3601C15.0549 15.6206 14.7017 15.7669 14.3333 15.7669Z" fill="white"/>
<path d="M7.87225 13.3333C7.63762 12.7611 7.20054 12.2954 6.64441 12.0249C6.08828 11.7545 5.45205 11.6982 4.85711 11.867C4.26218 12.0357 3.75019 12.4176 3.41885 12.9397C3.0875 13.4619 2.96001 14.0877 3.06068 14.6979C3.16136 15.308 3.48315 15.8597 3.96467 16.2478C4.44619 16.6358 5.05372 16.8329 5.67132 16.8016C6.28893 16.7702 6.87338 16.5126 7.31314 16.0778C7.7529 15.6431 8.0172 15.0616 8.05559 14.4444H11V14.3055C10.989 13.9777 11.0265 13.6501 11.1111 13.3333H7.87225ZM5.55559 15.7666C5.28089 15.7666 5.01236 15.6852 4.78396 15.5325C4.55556 15.3799 4.37754 15.163 4.27242 14.9092C4.1673 14.6554 4.13979 14.3762 4.19338 14.1068C4.24697 13.8373 4.37925 13.5899 4.57349 13.3956C4.76773 13.2014 5.01521 13.0691 5.28463 13.0155C5.55404 12.9619 5.8333 12.9894 6.08709 13.0946C6.34088 13.1997 6.55779 13.3777 6.71041 13.6061C6.86302 13.8345 6.94447 14.103 6.94447 14.3777C6.94447 14.7461 6.79815 15.0993 6.53768 15.3598C6.27721 15.6203 5.92394 15.7666 5.55559 15.7666Z" fill="white"/>
</svg>
