<svg width="17" height="16" viewBox="0 0 17 16" fill="none" xmlns="http://www.w3.org/2000/svg">
<path d="M14.5882 2.5H2.25629C1.99394 2.5 1.78198 2.72344 1.78198 3V13C1.78198 13.2766 1.99394 13.5 2.25629 13.5H14.5882C14.8506 13.5 15.0625 13.2766 15.0625 13V3C15.0625 2.72344 14.8506 2.5 14.5882 2.5ZM13.3906 4.20156L8.71425 8.0375C8.59864 8.13281 8.43708 8.13281 8.32147 8.0375L3.64363 4.20156C3.626 4.18722 3.61306 4.16741 3.60664 4.14493C3.60022 4.12245 3.60064 4.09841 3.60783 4.07618C3.61502 4.05396 3.62862 4.03466 3.64674 4.021C3.66486 4.00734 3.68657 4 3.70885 4H13.3254C13.3477 4 13.3694 4.00734 13.3875 4.021C13.4056 4.03466 13.4192 4.05396 13.4264 4.07618C13.4336 4.09841 13.434 4.12245 13.4276 4.14493C13.4212 4.16741 13.4082 4.18722 13.3906 4.20156V4.20156Z" fill="#232323"/>
</svg>
