<svg width="12" height="18" viewBox="0 0 12 18" fill="none" xmlns="http://www.w3.org/2000/svg">
<path d="M1.00008 15.6667H11.0001C11.4584 15.6667 11.8334 16.0417 11.8334 16.5C11.8334 16.9583 11.4584 17.3333 11.0001 17.3333H1.00008C0.541748 17.3333 0.166748 16.9583 0.166748 16.5C0.166748 16.0417 0.541748 15.6667 1.00008 15.6667ZM6.00008 4.83334C5.08341 4.83334 4.33341 5.58334 4.33341 6.5C4.33341 7.41667 5.08341 8.16667 6.00008 8.16667C6.91675 8.16667 7.66675 7.41667 7.66675 6.5C7.66675 5.58334 6.91675 4.83334 6.00008 4.83334ZM6.00008 0.666672C8.72508 0.666672 11.8334 2.71667 11.8334 6.625C11.8334 9.10834 10.0584 11.725 6.50841 14.45C6.20841 14.6833 5.79175 14.6833 5.49175 14.45C1.94175 11.7167 0.166748 9.10834 0.166748 6.625C0.166748 2.71667 3.27508 0.666672 6.00008 0.666672Z" fill="#232323"/>
</svg>
