<svg width="21" height="20" viewBox="0 0 21 20" fill="none" xmlns="http://www.w3.org/2000/svg">
<g clip-path="url(#clip0_5_3399)">
<path d="M19.8343 5.31349C19.6183 4.51023 18.985 3.87703 18.1818 3.66074C16.7146 3.25928 10.8455 3.25928 10.8455 3.25928C10.8455 3.25928 4.9766 3.25928 3.50935 3.64552C2.72166 3.86158 2.07289 4.51035 1.85683 5.31349C1.4707 6.78062 1.4707 9.82327 1.4707 9.82327C1.4707 9.82327 1.4707 12.8812 1.85683 14.333C2.07312 15.1362 2.70621 15.7694 3.50947 15.9857C4.99205 16.3873 10.8457 16.3873 10.8457 16.3873C10.8457 16.3873 16.7146 16.3873 18.1818 16.001C18.9851 15.7848 19.6183 15.1516 19.8346 14.3485C20.2206 12.8812 20.2206 9.83871 20.2206 9.83871C20.2206 9.83871 20.236 6.78062 19.8343 5.31349V5.31349ZM8.97688 12.6342V7.01237L13.8573 9.82327L8.97688 12.6342Z" fill="#232323"/>
</g>
<defs>
<clipPath id="clip0_5_3399">
<rect width="20" height="20" fill="white" transform="translate(0.855469)"/>
</clipPath>
</defs>
</svg>
