<svg width="148" height="40" viewBox="0 0 148 40" fill="none" xmlns="http://www.w3.org/2000/svg">
<path d="M30.0145 39.6387H20.0609V35.9226C18.4274 38.142 15.4669 39.8452 11.4854 39.8452C4.90069 39.8968 0.817139 35.6129 0.817139 28.7484V13.6258H10.6687V27.6129C10.6687 30.6065 12.5573 32.4129 15.3648 32.4129C18.2233 32.4129 20.0609 30.6581 20.0609 27.6129V13.6258H30.0145V39.6387Z" fill="#0FC97B"/>
<path d="M48.3908 13.3161C55.5371 13.3161 60.7946 17.0839 62.2239 23.6387H51.7087C51.1472 22.0387 50.0243 21.1097 48.1867 21.1097C45.7876 21.1097 44.1542 22.9677 44.1542 26.6839C44.1542 30.4516 45.7876 32.3097 48.1867 32.3097C50.0753 32.3097 51.1472 31.3807 51.7087 29.7807H62.2239C60.7946 36.2323 55.5371 40.1032 48.3908 40.1032C39.9685 40.1032 34.0474 35.0452 34.0474 26.7355C34.0474 18.3742 39.9175 13.3161 48.3908 13.3161Z" fill="#0FC97B"/>
<path d="M76.7721 13.3161C80.8046 13.3161 83.6631 14.9161 85.0923 17.2387V13.6258H94.9949V39.6387H85.0923V36.0258C83.612 38.3484 80.7535 39.9484 76.7721 39.9484C70.0342 39.9484 64.7256 34.8903 64.7256 26.5806C64.7256 18.271 70.0342 13.3161 76.7721 13.3161ZM79.9368 21.2129C77.1294 21.2129 74.7813 23.071 74.7813 26.5806C74.7813 30.0387 77.1294 32 79.9368 32C82.6932 32 85.0923 30.0903 85.0923 26.5806C85.0923 23.1226 82.6932 21.2129 79.9368 21.2129Z" fill="#0FC97B"/>
<path d="M110.511 39.6387H100.609V13.6258H110.511V18.2194C112.655 15.3807 115.871 13.3678 119.648 13.3678V23.071H116.892C112.808 23.071 110.511 24.2581 110.511 28.2839V39.6387Z" fill="#0FC97B"/>
<path d="M135.267 40C127.407 40 122.149 36.0774 121.741 30.9161H131.337C131.592 32.6193 133.175 33.5484 135.216 33.5484C136.901 33.5484 137.82 32.8258 137.82 31.8968C137.82 28.0774 122.762 31.2258 122.762 21.6258C122.762 17.0839 126.845 13.3161 134.502 13.3161C142.21 13.3161 146.242 17.2387 146.906 22.4H137.973C137.667 20.8 136.39 19.8194 134.298 19.8194C132.664 19.8194 131.848 20.4387 131.848 21.4194C131.848 25.1355 146.957 22.1419 147.008 32.0516C147.059 36.5419 142.567 40 135.267 40Z" fill="#0FC97B"/>
<path d="M5.81906 9.60004C2.297 9.60004 0 7.53552 0 4.90326C0 2.271 2.297 0.154877 5.81906 0.154877C9.29008 0.154877 11.5871 2.21939 11.5871 4.90326C11.5871 7.53552 9.29008 9.60004 5.81906 9.60004Z" fill="#0FC97B"/>
<path d="M22.2544 0H31.7997L27.3077 9.39355H17.7625L22.2544 0Z" fill="#0FC97B"/>
</svg>
