<svg width="17" height="16" viewBox="0 0 17 16" fill="none" xmlns="http://www.w3.org/2000/svg">
<path d="M13.9596 3.59687L12.3811 1.93438C12.2697 1.81647 12.1374 1.72293 11.9916 1.65911C11.8459 1.59529 11.6896 1.56246 11.5318 1.5625C11.2101 1.5625 10.9078 1.69531 10.681 1.93438L8.98239 3.725C8.87054 3.84238 8.7818 3.98191 8.72127 4.13555C8.66073 4.2892 8.62958 4.45394 8.62962 4.62031C8.62962 4.95938 8.75561 5.27813 8.98239 5.51719L10.2245 6.82656C9.93373 7.50213 9.5295 8.1167 9.0313 8.64062C8.53435 9.16709 7.9514 9.59477 7.31046 9.90312L6.06837 8.59375C5.95702 8.47585 5.82467 8.3823 5.67892 8.31849C5.53317 8.25467 5.37689 8.22184 5.21907 8.22188C4.89743 8.22188 4.59506 8.35469 4.36828 8.59375L2.6682 10.3828C2.55622 10.5004 2.4674 10.6402 2.40686 10.7941C2.34632 10.948 2.31525 11.1131 2.31543 11.2797C2.31543 11.6188 2.44142 11.9375 2.6682 12.1766L4.24378 13.8375C4.60544 14.2203 5.10494 14.4375 5.61778 14.4375C5.72598 14.4375 5.82974 14.4281 5.93201 14.4094C7.93002 14.0625 9.91173 12.9422 11.511 11.2578C13.1088 9.575 14.1701 7.4875 14.5036 5.375C14.6044 4.72969 14.4013 4.06562 13.9596 3.59687V3.59687Z" fill="#232323"/>
</svg>
